<?xml version="1.0" encoding="UTF-8"?>
<!DOCTYPE svg PUBLIC "-//W3C//DTD SVG 1.1//EN" "http://www.w3.org/Graphics/SVG/1.1/DTD/svg11.dtd">
<svg xmlns="http://www.w3.org/2000/svg" version="1.1" width="1024px" height="1024px" style="shape-rendering:geometricPrecision; text-rendering:geometricPrecision; image-rendering:optimizeQuality; fill-rule:evenodd; clip-rule:evenodd" xmlns:xlink="http://www.w3.org/1999/xlink">
<g><path style="opacity:1" fill="#fefefe" d="M -0.5,-0.5 C 340.833,-0.5 682.167,-0.5 1023.5,-0.5C 1023.5,340.833 1023.5,682.167 1023.5,1023.5C 682.167,1023.5 340.833,1023.5 -0.5,1023.5C -0.5,682.167 -0.5,340.833 -0.5,-0.5 Z"/></g>
<g><path style="opacity:1" fill="#fac59e" d="M 487.5,473.5 C 486.833,473.5 486.167,473.5 485.5,473.5C 479.797,473.375 474.13,473.708 468.5,474.5C 471.865,472.961 475.531,472.294 479.5,472.5C 482.355,472.503 485.022,472.836 487.5,473.5 Z"/></g>
<g><path style="opacity:1" fill="#f39153" d="M 485.5,473.5 C 486.167,473.5 486.833,473.5 487.5,473.5C 490.809,474.663 494.143,475.83 497.5,477C 500.233,478.228 500.9,480.061 499.5,482.5C 498.833,482.5 498.5,482.833 498.5,483.5C 497.85,483.804 497.183,484.137 496.5,484.5C 489.263,480.955 481.596,479.622 473.5,480.5C 478.855,479.769 484.355,479.102 490,478.5C 491.605,479.101 492.938,480.101 494,481.5C 494.741,480.359 495.575,480.359 496.5,481.5C 497.833,480.833 497.833,480.167 496.5,479.5C 492.788,477.351 489.121,475.351 485.5,473.5 Z"/></g>
<g><path style="opacity:1" fill="#f1823f" d="M 485.5,473.5 C 489.121,475.351 492.788,477.351 496.5,479.5C 497.833,480.167 497.833,480.833 496.5,481.5C 495.575,480.359 494.741,480.359 494,481.5C 492.938,480.101 491.605,479.101 490,478.5C 484.355,479.102 478.855,479.769 473.5,480.5C 466.347,482.659 461.013,486.992 457.5,493.5C 457.833,491.5 458.167,489.5 458.5,487.5C 456.379,487.325 454.379,487.659 452.5,488.5C 455.632,481.371 460.965,476.704 468.5,474.5C 474.13,473.708 479.797,473.375 485.5,473.5 Z"/></g>
<g><path style="opacity:1" fill="#f7e9e3" d="M 473.5,480.5 C 481.596,479.622 489.263,480.955 496.5,484.5C 497.183,484.137 497.85,483.804 498.5,483.5C 498.119,484.931 497.119,485.764 495.5,486C 500.116,489.044 500.783,492.378 497.5,496C 491.861,495.419 486.361,494.919 481,494.5C 472.873,495.621 466.54,499.621 462,506.5C 459.767,511.106 458.6,516.106 458.5,521.5C 456.023,517.295 455.023,512.628 455.5,507.5C 455.355,502.618 456.022,497.951 457.5,493.5C 461.013,486.992 466.347,482.659 473.5,480.5 Z"/></g>
<g><path style="opacity:1" fill="#d55f4e" d="M 222.5,473.5 C 227.619,472.897 232.285,473.564 236.5,475.5C 236.5,488.833 236.5,502.167 236.5,515.5C 236.167,515.5 235.833,515.5 235.5,515.5C 235.5,501.833 235.5,488.167 235.5,474.5C 231.5,474.5 227.5,474.5 223.5,474.5C 223.5,490.833 223.5,507.167 223.5,523.5C 223.5,529.5 223.5,535.5 223.5,541.5C 222.503,519.006 222.169,496.339 222.5,473.5 Z"/></g>
<g><path style="opacity:1" fill="#e7763e" d="M 372.5,491.5 C 371.883,491.389 371.383,491.056 371,490.5C 370.07,492.552 368.57,494.052 366.5,495C 368.286,495.196 369.619,496.029 370.5,497.5C 368.364,498.472 367.197,500.139 367,502.5C 365.364,500.102 363.198,498.935 360.5,499C 360.833,500 361.167,501 361.5,502C 361,502.5 360.5,503 360,503.5C 359.5,511.159 359.334,518.826 359.5,526.5C 359.5,527.167 359.5,527.833 359.5,528.5C 359.167,528.5 358.833,528.5 358.5,528.5C 358.5,520.167 358.5,511.833 358.5,503.5C 355.833,503.5 353.167,503.5 350.5,503.5C 350.5,499.833 350.5,496.167 350.5,492.5C 353.028,491.834 355.694,491.168 358.5,490.5C 359.439,486.235 359.772,481.902 359.5,477.5C 363.833,477.5 368.167,477.5 372.5,477.5C 372.5,482.167 372.5,486.833 372.5,491.5 Z"/></g>
<g><path style="opacity:1" fill="#f7d0b5" d="M 787.5,492.5 C 787.167,492.5 786.833,492.5 786.5,492.5C 786.5,487.833 786.5,483.167 786.5,478.5C 784.167,478.5 781.833,478.5 779.5,478.5C 779.5,483.167 779.5,487.833 779.5,492.5C 779.167,492.5 778.833,492.5 778.5,492.5C 778.5,487.5 778.5,482.5 778.5,477.5C 781.5,477.5 784.5,477.5 787.5,477.5C 787.5,482.5 787.5,487.5 787.5,492.5 Z"/></g>
<g><path style="opacity:1" fill="#f8c199" d="M 535.5,492.5 C 530.341,492.182 525.341,492.848 520.5,494.5C 521.347,493.034 522.68,492.2 524.5,492C 528.358,491.19 532.024,491.357 535.5,492.5 Z"/></g>
<g><path style="opacity:1" fill="#fae1cb" d="M 586.5,492.5 C 590.646,491.353 594.98,491.186 599.5,492C 600.381,492.708 601.047,493.542 601.5,494.5C 596.759,492.683 591.759,492.016 586.5,492.5 Z"/></g>
<g><path style="opacity:1" fill="#ea8e7a" d="M 275.5,491.5 C 273.898,493.074 271.898,493.741 269.5,493.5C 271.102,491.926 273.102,491.259 275.5,491.5 Z"/></g>
<g><path style="opacity:1" fill="#f7b083" d="M 778.5,492.5 C 778.833,492.5 779.167,492.5 779.5,492.5C 776.713,493.477 773.713,493.81 770.5,493.5C 770.5,495.5 770.5,497.5 770.5,499.5C 769.532,497.393 769.198,495.059 769.5,492.5C 772.5,492.5 775.5,492.5 778.5,492.5 Z"/></g>
<g><path style="opacity:1" fill="#f8b48d" d="M 786.5,492.5 C 786.833,492.5 787.167,492.5 787.5,492.5C 791.833,492.5 796.167,492.5 800.5,492.5C 800.802,495.059 800.468,497.393 799.5,499.5C 799.5,497.5 799.5,495.5 799.5,493.5C 794.968,493.818 790.634,493.485 786.5,492.5 Z"/></g>
<g><path style="opacity:1" fill="#de6334" d="M 341.5,493.5 C 343.873,494.378 344.706,496.045 344,498.5C 342.325,500.532 340.658,502.532 339,504.5C 337.862,504.011 336.695,503.678 335.5,503.5C 335.082,502.778 334.416,502.278 333.5,502C 329.833,501.333 326.167,501.333 322.5,502C 320.963,503.11 320.297,504.61 320.5,506.5C 319.566,505.432 319.232,504.099 319.5,502.5C 318.448,502.649 317.448,502.483 316.5,502C 316.89,498.809 318.224,496.142 320.5,494C 318.115,493.444 315.782,493.61 313.5,494.5C 314.681,492.933 316.347,492.099 318.5,492C 326.29,491.076 333.957,491.576 341.5,493.5 Z"/></g>
<g><path style="opacity:1" fill="#ef8645" d="M 644.5,492.5 C 646.216,493.971 648.216,494.971 650.5,495.5C 650.366,497.292 650.699,498.958 651.5,500.5C 641.654,496.428 634.321,499.095 629.5,508.5C 627.966,503.71 627.299,498.71 627.5,493.5C 628.165,495.698 628.832,498.031 629.5,500.5C 630.107,500.376 630.44,500.043 630.5,499.5C 632.963,497.539 635.297,495.372 637.5,493C 639.81,492.503 642.143,492.337 644.5,492.5 Z"/></g>
<g><path style="opacity:1" fill="#f6ab7a" d="M 699.5,492.5 C 694.941,492.276 690.608,492.942 686.5,494.5C 687.347,493.034 688.68,492.2 690.5,492C 693.696,491.195 696.696,491.362 699.5,492.5 Z"/></g>
<g><path style="opacity:1" fill="#ef8440" d="M 786.5,492.5 C 790.634,493.485 794.968,493.818 799.5,493.5C 799.5,495.5 799.5,497.5 799.5,499.5C 795.167,499.5 790.833,499.5 786.5,499.5C 786.5,509.5 786.5,519.5 786.5,529.5C 785.67,521.01 785.17,512.343 785,503.5C 784,503.5 783,503.5 782,503.5C 781.243,505.315 780.41,506.981 779.5,508.5C 779.5,505.5 779.5,502.5 779.5,499.5C 776.5,499.5 773.5,499.5 770.5,499.5C 770.5,497.5 770.5,495.5 770.5,493.5C 773.713,493.81 776.713,493.477 779.5,492.5C 779.5,487.833 779.5,483.167 779.5,478.5C 781.833,478.5 784.167,478.5 786.5,478.5C 786.5,483.167 786.5,487.833 786.5,492.5 Z"/></g>
<g><path style="opacity:1" fill="#ee9f7a" d="M 372.5,491.5 C 376.833,491.5 381.167,491.5 385.5,491.5C 385.5,495.167 385.5,498.833 385.5,502.5C 385.167,502.5 384.833,502.5 384.5,502.5C 384.5,499.167 384.5,495.833 384.5,492.5C 380.298,492.817 376.298,492.483 372.5,491.5 Z"/></g>
<g><path style="opacity:1" fill="#e66e38" d="M 436.5,505.5 C 436.5,507.833 436.5,510.167 436.5,512.5C 436.5,522.167 436.5,531.833 436.5,541.5C 432.5,541.5 428.5,541.5 424.5,541.5C 424.799,539.396 424.466,537.396 423.5,535.5C 422.265,536.34 421.265,537.34 420.5,538.5C 420.815,536.774 420.981,535.107 421,533.5C 420.086,534.654 419.253,534.487 418.5,533C 415.305,532.819 412.305,532.319 409.5,531.5C 415.238,532.632 419.238,530.632 421.5,525.5C 422.468,523.393 422.802,521.059 422.5,518.5C 419.15,518.335 415.817,518.502 412.5,519C 411.584,519.278 410.918,519.778 410.5,520.5C 409.833,520.833 409.167,521.167 408.5,521.5C 408.229,519.688 407.562,518.022 406.5,516.5C 403.143,516.468 399.809,516.468 396.5,516.5C 400.596,512.572 405.596,510.572 411.5,510.5C 415.167,510.5 418.833,510.5 422.5,510.5C 422.784,508.585 422.451,506.919 421.5,505.5C 420.738,503.738 419.404,502.738 417.5,502.5C 415.866,501.839 414.033,501.506 412,501.5C 408.85,501.36 406.017,502.027 403.5,503.5C 401.761,504.434 400.095,504.434 398.5,503.5C 396.506,501.184 395.506,498.518 395.5,495.5C 398.4,494.105 401.4,492.939 404.5,492C 410.833,491.333 417.167,491.333 423.5,492C 430.112,494.442 434.445,498.942 436.5,505.5 Z"/></g>
<g><path style="opacity:1" fill="#ee7d3c" d="M 763.5,500.5 C 760.881,501.803 758.547,501.303 756.5,499C 747.36,496.913 740.36,499.746 735.5,507.5C 734.778,507.918 734.278,508.584 734,509.5C 733.333,514.5 733.333,519.5 734,524.5C 734.278,525.416 734.778,526.082 735.5,526.5C 735.75,528.674 736.75,530.341 738.5,531.5C 739.585,533.587 741.251,534.92 743.5,535.5C 745.134,536.161 746.967,536.494 749,536.5C 752.15,536.64 754.983,535.973 757.5,534.5C 759.167,533.833 760.833,533.167 762.5,532.5C 765.792,536.789 764.792,539.623 759.5,541C 750.852,543.585 742.519,542.918 734.5,539C 732.121,536.401 730.121,533.567 728.5,530.5C 729.5,530.5 730.5,530.5 731.5,530.5C 732.326,525.098 731.826,519.764 730,514.5C 728.691,516.891 727.691,516.891 727,514.5C 726.503,517.146 726.336,519.813 726.5,522.5C 725.188,516.882 725.521,511.216 727.5,505.5C 730.117,499.05 734.784,494.883 741.5,493C 747.167,492.333 752.833,492.333 758.5,493C 760.746,494.039 762.913,495.206 765,496.5C 764.857,497.865 764.357,499.198 763.5,500.5 Z"/></g>
<g><path style="opacity:1" fill="#e1662f" d="M 372.5,491.5 C 376.298,492.483 380.298,492.817 384.5,492.5C 384.5,495.833 384.5,499.167 384.5,502.5C 380.298,502.183 376.298,502.517 372.5,503.5C 371.671,510.321 371.171,517.321 371,524.5C 370.667,524.167 370.333,523.833 370,523.5C 367.346,525.385 364.513,527.051 361.5,528.5C 360.818,527.757 360.151,527.091 359.5,526.5C 359.334,518.826 359.5,511.159 360,503.5C 360.5,503 361,502.5 361.5,502C 361.167,501 360.833,500 360.5,499C 363.198,498.935 365.364,500.102 367,502.5C 367.197,500.139 368.364,498.472 370.5,497.5C 369.619,496.029 368.286,495.196 366.5,495C 368.57,494.052 370.07,492.552 371,490.5C 371.383,491.056 371.883,491.389 372.5,491.5 Z"/></g>
<g><path style="opacity:1" fill="#d75230" d="M 275.5,491.5 C 280.813,490.932 285.813,491.765 290.5,494C 293.121,496.156 295.121,498.656 296.5,501.5C 296.5,502.167 296.5,502.833 296.5,503.5C 296.829,516.344 296.495,529.011 295.5,541.5C 295.666,533.16 295.5,524.827 295,516.5C 293.54,518.466 291.873,520.132 290,521.5C 289.955,520.077 288.789,519.077 286.5,518.5C 284.898,519.55 284.065,518.883 284,516.5C 283.5,524.827 283.334,533.16 283.5,541.5C 283.167,541.5 282.833,541.5 282.5,541.5C 282.667,530.162 282.5,518.828 282,507.5C 280.471,504.484 277.971,503.151 274.5,503.5C 270.861,503.488 267.861,504.821 265.5,507.5C 265.36,505.876 266.027,504.71 267.5,504C 264.656,502.986 262.656,501.152 261.5,498.5C 263.263,499.954 264.597,499.62 265.5,497.5C 266.527,495.806 267.861,494.473 269.5,493.5C 271.898,493.741 273.898,493.074 275.5,491.5 Z"/></g>
<g><path style="opacity:1" fill="#ce4026" d="M 235.5,515.5 C 235.966,521.292 234.466,522.625 231,519.5C 230.517,520.448 230.351,521.448 230.5,522.5C 228.278,522.178 226.444,522.845 225,524.5C 224.617,523.944 224.117,523.611 223.5,523.5C 223.5,507.167 223.5,490.833 223.5,474.5C 227.5,474.5 231.5,474.5 235.5,474.5C 235.5,488.167 235.5,501.833 235.5,515.5 Z"/></g>
<g><path style="opacity:1" fill="#f5bda1" d="M 566.5,492.5 C 569.388,491.99 571.721,492.656 573.5,494.5C 571.621,493.659 569.621,493.325 567.5,493.5C 567.5,509.5 567.5,525.5 567.5,541.5C 566.509,534.687 566.175,527.687 566.5,520.5C 566.5,511.167 566.5,501.833 566.5,492.5 Z"/></g>
<g><path style="opacity:1" fill="#ee7d3e" d="M 644.5,492.5 C 652.402,491.614 658.068,494.614 661.5,501.5C 662.445,514.797 662.778,528.13 662.5,541.5C 659.833,541.5 657.167,541.5 654.5,541.5C 654.667,529.162 654.5,516.829 654,504.5C 653.338,503.016 652.504,501.683 651.5,500.5C 650.699,498.958 650.366,497.292 650.5,495.5C 648.216,494.971 646.216,493.971 644.5,492.5 Z"/></g>
<g><path style="opacity:1" fill="#faf4f2" d="M 499.5,482.5 C 505.023,486.966 505.856,492.299 502,498.5C 500.559,499.87 498.892,500.87 497,501.5C 494.333,501.5 491.667,501.5 489,501.5C 483.035,498.678 477.202,499.011 471.5,502.5C 469.517,504.984 467.35,507.317 465,509.5C 464.899,512.921 464.066,516.088 462.5,519C 463.237,521.416 462.57,523.583 460.5,525.5C 459.326,524.486 458.66,523.153 458.5,521.5C 458.6,516.106 459.767,511.106 462,506.5C 466.54,499.621 472.873,495.621 481,494.5C 486.361,494.919 491.861,495.419 497.5,496C 500.783,492.378 500.116,489.044 495.5,486C 497.119,485.764 498.119,484.931 498.5,483.5C 498.5,482.833 498.833,482.5 499.5,482.5 Z"/></g>
<g><path style="opacity:1" fill="#f7ece6" d="M 546.5,522.5 C 545.695,527.45 543.362,531.45 539.5,534.5C 539.579,533.07 539.246,531.736 538.5,530.5C 541.377,525.582 540.71,521.082 536.5,517C 529.968,514.177 525.135,516.011 522,522.5C 520.072,525.392 519.572,528.392 520.5,531.5C 519.094,531.027 518.427,530.027 518.5,528.5C 517.659,521.535 517.326,514.535 517.5,507.5C 520.629,499.935 526.296,497.102 534.5,499C 545.925,502.73 549.925,510.563 546.5,522.5 Z"/></g>
<g><path style="opacity:1" fill="#f6e5dd" d="M 651.5,500.5 C 652.504,501.683 653.338,503.016 654,504.5C 654.5,516.829 654.667,529.162 654.5,541.5C 653.992,533.538 652.825,525.538 651,517.5C 648.813,512.901 645.48,510.567 641,510.5C 637.303,512.559 634.303,515.893 632,520.5C 631.779,528.843 631.779,537.176 632,545.5C 631.044,546.579 630.211,547.745 629.5,549C 627.82,549.034 626.32,549.201 625,549.5C 623.414,547.33 622.08,544.996 621,542.5C 620.174,530.992 620.341,519.659 621.5,508.5C 621.172,519.679 621.505,530.679 622.5,541.5C 624.833,541.5 627.167,541.5 629.5,541.5C 629.5,531.167 629.5,520.833 629.5,510.5C 629.5,509.833 629.5,509.167 629.5,508.5C 634.321,499.095 641.654,496.428 651.5,500.5 Z"/></g>
<g><path style="opacity:1" fill="#ee7e3e" d="M 535.5,492.5 C 544.543,493.879 550.543,498.879 553.5,507.5C 553.5,508.167 553.5,508.833 553.5,509.5C 552.849,510.091 552.182,510.757 551.5,511.5C 550.108,510.395 548.941,509.061 548,507.5C 547.826,512.684 547.326,517.684 546.5,522.5C 549.925,510.563 545.925,502.73 534.5,499C 526.296,497.102 520.629,499.935 517.5,507.5C 516.833,508.167 516.167,508.833 515.5,509.5C 515.993,507.194 516.326,504.861 516.5,502.5C 515.07,502.421 513.736,502.754 512.5,503.5C 511.859,504.993 510.859,505.993 509.5,506.5C 511.438,500.897 515.104,496.897 520.5,494.5C 525.341,492.848 530.341,492.182 535.5,492.5 Z"/></g>
<g><path style="opacity:1" fill="#f9f3ee" d="M 385.5,491.5 C 386.166,494.358 386.833,497.358 387.5,500.5C 389.66,504.886 392.66,505.553 396.5,502.5C 394.447,500.271 394.114,497.938 395.5,495.5C 395.506,498.518 396.506,501.184 398.5,503.5C 400.095,504.434 401.761,504.434 403.5,503.5C 408.13,502.771 412.797,502.437 417.5,502.5C 419.404,502.738 420.738,503.738 421.5,505.5C 421.5,506.833 421.5,508.167 421.5,509.5C 417.958,509.187 414.625,509.521 411.5,510.5C 405.596,510.572 400.596,512.572 396.5,516.5C 391.915,520.334 390.248,525.334 391.5,531.5C 391.663,533.857 391.497,536.19 391,538.5C 389.286,536.957 387.786,535.29 386.5,533.5C 388.115,531.249 387.448,529.916 384.5,529.5C 383.893,529.624 383.56,529.957 383.5,530.5C 383.167,530.5 382.833,530.5 382.5,530.5C 379.956,530.896 377.789,530.229 376,528.5C 375.333,524.5 375.333,520.5 376,516.5C 377.67,514.302 379.67,513.968 382,515.5C 383.343,511.12 384.51,506.786 385.5,502.5C 385.5,498.833 385.5,495.167 385.5,491.5 Z"/></g>
<g><path style="opacity:1" fill="#f7ece8" d="M 800.5,492.5 C 801.21,494.893 801.877,497.393 802.5,500C 802.167,500.333 801.833,500.667 801.5,501C 802.416,501.374 803.25,501.874 804,502.5C 804.436,504.847 804.936,507.181 805.5,509.5C 802.195,514.304 798.362,518.638 794,522.5C 792.568,525.002 792.402,527.502 793.5,530C 791.963,531.11 791.297,532.61 791.5,534.5C 793.833,534.5 796.167,534.5 798.5,534.5C 794.167,537.611 790.501,536.944 787.5,532.5C 787.5,521.833 787.5,511.167 787.5,500.5C 791.702,500.817 795.702,500.483 799.5,499.5C 800.468,497.393 800.802,495.059 800.5,492.5 Z"/></g>
<g><path style="opacity:1" fill="#ee8141" d="M 699.5,492.5 C 709.505,493.839 715.172,499.505 716.5,509.5C 716.5,511.833 716.5,514.167 716.5,516.5C 714.94,516.519 713.44,516.852 712,517.5C 710.831,516.991 709.998,516.158 709.5,515C 699.922,514.182 690.422,514.349 681,515.5C 679,512.833 677,512.833 675,515.5C 674.503,517.81 674.337,520.143 674.5,522.5C 674.167,522.5 673.833,522.5 673.5,522.5C 673.283,517.77 673.617,513.103 674.5,508.5C 676.185,501.767 680.185,497.1 686.5,494.5C 690.608,492.942 694.941,492.276 699.5,492.5 Z"/></g>
<g><path style="opacity:1" fill="#f6eee7" d="M 708.5,506.5 C 708.5,508.5 708.5,510.5 708.5,512.5C 699.833,512.5 691.167,512.5 682.5,512.5C 682.5,511.5 682.5,510.5 682.5,509.5C 685.462,500.344 691.796,496.844 701.5,499C 704.739,500.736 707.073,503.236 708.5,506.5 Z"/></g>
<g><path style="opacity:1" fill="#f7eee9" d="M 763.5,500.5 C 763.119,501.931 762.119,502.764 760.5,503C 763.285,504.395 766.285,505.228 769.5,505.5C 772.177,505.186 774.844,504.853 777.5,504.5C 777.5,503.167 777.5,501.833 777.5,500.5C 778.167,511.167 778.833,521.833 779.5,532.5C 782.838,542.282 789.505,545.282 799.5,541.5C 800.066,544.62 801.066,547.953 802.5,551.5C 801.289,553.422 799.956,555.255 798.5,557C 787.744,559.836 780.411,556.169 776.5,546C 777.214,544.657 776.88,543.324 775.5,542C 775.665,540.883 775.998,539.716 776.5,538.5C 774.677,534.079 774.344,529.579 775.5,525C 774.202,515.044 769.202,511.877 760.5,515.5C 752.172,513.553 745.339,515.887 740,522.5C 738.851,525.393 738.351,528.393 738.5,531.5C 736.75,530.341 735.75,528.674 735.5,526.5C 735.5,520.167 735.5,513.833 735.5,507.5C 740.36,499.746 747.36,496.913 756.5,499C 758.547,501.303 760.881,501.803 763.5,500.5 Z"/></g>
<g><path style="opacity:1" fill="#f2bd9e" d="M 708.5,506.5 C 709.468,508.607 709.802,510.941 709.5,513.5C 700.167,513.5 690.833,513.5 681.5,513.5C 681.232,511.901 681.566,510.568 682.5,509.5C 682.5,510.5 682.5,511.5 682.5,512.5C 691.167,512.5 699.833,512.5 708.5,512.5C 708.5,510.5 708.5,508.5 708.5,506.5 Z"/></g>
<g><path style="opacity:1" fill="#f4cebc" d="M 799.5,499.5 C 795.702,500.483 791.702,500.817 787.5,500.5C 787.5,511.167 787.5,521.833 787.5,532.5C 786.596,531.791 786.263,530.791 786.5,529.5C 786.5,519.5 786.5,509.5 786.5,499.5C 790.833,499.5 795.167,499.5 799.5,499.5 Z"/></g>
<g><path style="opacity:1" fill="#d86d5d" d="M 250.5,491.5 C 254.649,490.92 258.316,491.586 261.5,493.5C 258.064,492.218 254.731,492.218 251.5,493.5C 251.5,509.5 251.5,525.5 251.5,541.5C 250.503,525.008 250.17,508.342 250.5,491.5 Z"/></g>
<g><path style="opacity:1" fill="#f7efea" d="M 566.5,492.5 C 566.5,501.833 566.5,511.167 566.5,520.5C 565.508,527.648 565.175,534.981 565.5,542.5C 568.167,542.5 570.833,542.5 573.5,542.5C 573.881,544.942 573.214,545.609 571.5,544.5C 570.808,545.025 570.308,545.692 570,546.5C 568.951,545.483 567.784,545.316 566.5,546C 569.438,550.635 572.605,551.135 576,547.5C 577.105,538.392 577.772,529.058 578,519.5C 579.878,517.957 581.378,516.124 582.5,514C 584.937,512.351 587.437,512.185 590,513.5C 592.5,512.5 595,511.5 597.5,510.5C 596.47,506.727 593.97,504.727 590,504.5C 586.184,505.307 582.35,505.974 578.5,506.5C 578.5,505.5 578.5,504.5 578.5,503.5C 583.721,497.929 589.721,497.096 596.5,501C 597.211,502.255 598.044,503.421 599,504.5C 599.5,516.829 599.667,529.162 599.5,541.5C 602.167,541.5 604.833,541.5 607.5,541.5C 607.5,528.833 607.5,516.167 607.5,503.5C 608.531,505.961 609.198,508.627 609.5,511.5C 609.561,513.592 610.561,515.092 612.5,516C 612.693,519.273 612.027,522.607 610.5,526C 611.134,532.774 611.468,539.608 611.5,546.5C 610.892,550.309 609.392,553.643 607,556.5C 605.133,556.165 602.966,555.665 600.5,555C 599.272,554.221 598.272,553.221 597.5,552C 595.92,542.919 595.087,533.752 595,524.5C 594.086,522.336 592.919,520.336 591.5,518.5C 587.028,516.336 583.528,517.669 581,522.5C 580.379,531.659 579.712,540.993 579,550.5C 577.342,552.165 575.675,553.832 574,555.5C 566.467,553.477 562.467,548.477 562,540.5C 560.075,538.027 558.242,538.027 556.5,540.5C 552.694,554.682 543.694,560.682 529.5,558.5C 524.633,559.102 520.3,557.935 516.5,555C 512.777,550.61 509.443,545.944 506.5,541C 506.43,530.416 507.097,519.916 508.5,509.5C 508.5,514.5 508.5,519.5 508.5,524.5C 508.336,527.187 508.503,529.854 509,532.5C 509.637,534.303 510.803,535.636 512.5,536.5C 511.109,536.109 510.109,536.942 509.5,539C 510.744,543.654 512.91,547.821 516,551.5C 521.54,555.779 526.707,555.279 531.5,550C 529.099,549.205 526.932,548.038 525,546.5C 524.517,545.552 524.351,544.552 524.5,543.5C 529.897,543.785 535.23,543.451 540.5,542.5C 541.521,543.002 541.688,543.668 541,544.5C 538.515,545.987 536.348,547.821 534.5,550C 538.281,551.816 541.947,551.483 545.5,549C 547.908,547.378 550.074,545.545 552,543.5C 552.233,541.22 553.066,539.22 554.5,537.5C 553.975,536.808 553.308,536.308 552.5,536C 553.38,534.644 553.714,533.144 553.5,531.5C 554.552,531.649 555.552,531.483 556.5,531C 556.097,524.564 555.43,518.064 554.5,511.5C 554.672,510.508 554.338,509.842 553.5,509.5C 553.5,508.833 553.5,508.167 553.5,507.5C 554.397,508.598 555.23,508.598 556,507.5C 556.98,509.059 557.813,510.726 558.5,512.5C 559.736,511.754 561.07,511.421 562.5,511.5C 562.481,509.94 562.148,508.44 561.5,507C 564.558,502.537 566.225,497.703 566.5,492.5 Z"/></g>
<g><path style="opacity:1" fill="#f6e5db" d="M 578.5,503.5 C 578.5,504.5 578.5,505.5 578.5,506.5C 582.35,505.974 586.184,505.307 590,504.5C 593.97,504.727 596.47,506.727 597.5,510.5C 595,511.5 592.5,512.5 590,513.5C 587.437,512.185 584.937,512.351 582.5,514C 581.378,516.124 579.878,517.957 578,519.5C 577.772,529.058 577.105,538.392 576,547.5C 572.605,551.135 569.438,550.635 566.5,546C 567.784,545.316 568.951,545.483 570,546.5C 570.308,545.692 570.808,545.025 571.5,544.5C 573.214,545.609 573.881,544.942 573.5,542.5C 570.833,542.5 568.167,542.5 565.5,542.5C 565.175,534.981 565.508,527.648 566.5,520.5C 566.175,527.687 566.509,534.687 567.5,541.5C 569.833,541.5 572.167,541.5 574.5,541.5C 574.333,530.495 574.5,519.495 575,508.5C 575.697,506.416 576.864,504.749 578.5,503.5 Z"/></g>
<g><path style="opacity:1" fill="#ec7b3d" d="M 586.5,492.5 C 591.759,492.016 596.759,492.683 601.5,494.5C 604.233,497.075 606.233,500.075 607.5,503.5C 607.5,516.167 607.5,528.833 607.5,541.5C 604.833,541.5 602.167,541.5 599.5,541.5C 599.667,529.162 599.5,516.829 599,504.5C 598.044,503.421 597.211,502.255 596.5,501C 589.721,497.096 583.721,497.929 578.5,503.5C 576.864,504.749 575.697,506.416 575,508.5C 574.5,519.495 574.333,530.495 574.5,541.5C 572.167,541.5 569.833,541.5 567.5,541.5C 567.5,525.5 567.5,509.5 567.5,493.5C 569.621,493.325 571.621,493.659 573.5,494.5C 573.383,496.484 574.05,498.15 575.5,499.5C 577.984,497.517 580.317,495.35 582.5,493C 583.793,492.51 585.127,492.343 586.5,492.5 Z"/></g>
<g><path style="opacity:1" fill="#ed7432" d="M 623.5,493.5 C 624.833,493.5 626.167,493.5 627.5,493.5C 627.299,498.71 627.966,503.71 629.5,508.5C 629.5,509.167 629.5,509.833 629.5,510.5C 628.506,520.319 628.173,530.319 628.5,540.5C 626.833,540.5 625.167,540.5 623.5,540.5C 623.5,524.833 623.5,509.167 623.5,493.5 Z"/></g>
<g><path style="opacity:1" fill="#e9743b" d="M 457.5,493.5 C 456.022,497.951 455.355,502.618 455.5,507.5C 455.023,512.628 456.023,517.295 458.5,521.5C 458.66,523.153 459.326,524.486 460.5,525.5C 463.448,531.156 468.115,534.656 474.5,536C 479.683,536.908 484.683,536.408 489.5,534.5C 492.419,533.707 495.085,532.374 497.5,530.5C 499.063,531.945 500.396,533.611 501.5,535.5C 499.45,537.547 497.117,539.214 494.5,540.5C 491.302,541.787 487.969,542.453 484.5,542.5C 479.13,542.608 473.797,542.275 468.5,541.5C 461.781,539.551 456.614,535.551 453,529.5C 448.116,521.508 446.283,512.841 447.5,503.5C 447.517,501.435 447.85,499.435 448.5,497.5C 448.792,493.934 450.126,490.934 452.5,488.5C 454.379,487.659 456.379,487.325 458.5,487.5C 458.167,489.5 457.833,491.5 457.5,493.5 Z"/></g>
<g><path style="opacity:1" fill="#f7d4c1" d="M 735.5,507.5 C 735.5,513.833 735.5,520.167 735.5,526.5C 734.778,526.082 734.278,525.416 734,524.5C 733.333,519.5 733.333,514.5 734,509.5C 734.278,508.584 734.778,507.918 735.5,507.5 Z"/></g>
<g><path style="opacity:1" fill="#f3c7af" d="M 630.5,499.5 C 630.44,500.043 630.107,500.376 629.5,500.5C 628.832,498.031 628.165,495.698 627.5,493.5C 626.167,493.5 624.833,493.5 623.5,493.5C 622.504,509.325 622.17,525.325 622.5,541.5C 621.505,530.679 621.172,519.679 621.5,508.5C 621.5,503.5 621.5,498.5 621.5,493.5C 623.948,492.527 626.615,492.194 629.5,492.5C 629.198,495.059 629.532,497.393 630.5,499.5 Z"/></g>
<g><path style="opacity:1" fill="#f4bfa4" d="M 770.5,499.5 C 773.5,499.5 776.5,499.5 779.5,499.5C 779.5,502.5 779.5,505.5 779.5,508.5C 779.5,516.5 779.5,524.5 779.5,532.5C 778.833,521.833 778.167,511.167 777.5,500.5C 774.941,500.802 772.607,500.468 770.5,499.5 Z"/></g>
<g><path style="opacity:1" fill="#eb7a3c" d="M 786.5,529.5 C 786.263,530.791 786.596,531.791 787.5,532.5C 790.501,536.944 794.167,537.611 798.5,534.5C 799.906,534.973 800.573,535.973 800.5,537.5C 800.567,538.959 800.234,540.292 799.5,541.5C 789.505,545.282 782.838,542.282 779.5,532.5C 779.5,524.5 779.5,516.5 779.5,508.5C 780.41,506.981 781.243,505.315 782,503.5C 783,503.5 784,503.5 785,503.5C 785.17,512.343 785.67,521.01 786.5,529.5 Z"/></g>
<g><path style="opacity:1" fill="#f5e9e3" d="M 447.5,503.5 C 446.283,512.841 448.116,521.508 453,529.5C 456.614,535.551 461.781,539.551 468.5,541.5C 471.356,543.006 474.523,543.672 478,543.5C 480.361,543.496 482.527,543.163 484.5,542.5C 487.969,542.453 491.302,541.787 494.5,540.5C 493.517,541.85 492.184,542.85 490.5,543.5C 491.333,543.833 492.167,544.167 493,544.5C 495.472,543.678 497.972,543.011 500.5,542.5C 501.922,548.665 499.755,553.332 494,556.5C 493.667,556.167 493.333,555.833 493,555.5C 485.051,559.167 476.884,559.5 468.5,556.5C 467.707,556.931 466.873,557.265 466,557.5C 462.285,554.947 458.451,552.614 454.5,550.5C 449.919,540.622 446.585,530.289 444.5,519.5C 445.976,514.133 446.976,508.799 447.5,503.5 Z"/></g>
<g><path style="opacity:1" fill="#faf7f6" d="M 221.5,479.5 C 220.901,501.007 220.234,522.507 219.5,544C 221.347,556.213 227.347,559.047 237.5,552.5C 238.243,550.362 238.91,548.196 239.5,546C 238.885,527.546 238.885,509.046 239.5,490.5C 239.551,487.308 238.884,484.308 237.5,481.5C 238.721,482.028 239.887,482.695 241,483.5C 242.668,488.793 244.335,494.46 246,500.5C 246.985,498.825 247.819,497.158 248.5,495.5C 247.6,512.016 247.266,528.516 247.5,545C 248.817,550.132 251.317,554.632 255,558.5C 258.066,558.83 261.233,558.33 264.5,557C 267.062,554.711 268.729,551.877 269.5,548.5C 269.68,541.745 269.346,534.912 268.5,528C 268.106,523.836 269.606,520.669 273,518.5C 274.53,519.636 275.863,520.636 277,521.5C 278.616,530.814 279.95,540.147 281,549.5C 282.692,553.859 285.692,556.859 290,558.5C 294.846,557.385 299.512,555.719 304,553.5C 307.067,555.168 310.067,556.834 313,558.5C 319.415,558.234 325.915,558.067 332.5,558C 335.376,557.562 338.043,556.562 340.5,555C 345.093,549.584 348.093,543.417 349.5,536.5C 347.399,531.939 347.399,527.272 349.5,522.5C 353.796,524.296 356.463,527.463 357.5,532C 356.833,533.667 356.167,535.333 355.5,537C 358.05,543.988 361.717,550.322 366.5,556C 375.97,559.395 384.137,557.562 391,550.5C 401.245,558.194 412.245,559.527 424,554.5C 432.751,558.131 437.917,555.131 439.5,545.5C 439.32,544.446 438.987,543.446 438.5,542.5C 439.616,537.409 440.282,532.243 440.5,527C 440.007,519.717 439.007,512.551 437.5,505.5C 438.41,507.019 439.243,508.685 440,510.5C 441,508.833 442.333,507.5 444,506.5C 445.359,503.276 446.859,500.276 448.5,497.5C 447.85,499.435 447.517,501.435 447.5,503.5C 446.976,508.799 445.976,514.133 444.5,519.5C 446.585,530.289 449.919,540.622 454.5,550.5C 458.451,552.614 462.285,554.947 466,557.5C 466.873,557.265 467.707,556.931 468.5,556.5C 476.884,559.5 485.051,559.167 493,555.5C 493.333,555.833 493.667,556.167 494,556.5C 499.755,553.332 501.922,548.665 500.5,542.5C 497.972,543.011 495.472,543.678 493,544.5C 492.167,544.167 491.333,543.833 490.5,543.5C 492.184,542.85 493.517,541.85 494.5,540.5C 497.117,539.214 499.45,537.547 501.5,535.5C 500.396,533.611 499.063,531.945 497.5,530.5C 495.085,532.374 492.419,533.707 489.5,534.5C 489.369,533.624 489.702,532.957 490.5,532.5C 493.285,531.024 496.118,529.691 499,528.5C 501.294,520.783 504.461,513.45 508.5,506.5C 508.5,507.5 508.5,508.5 508.5,509.5C 507.097,519.916 506.43,530.416 506.5,541C 509.443,545.944 512.777,550.61 516.5,555C 520.3,557.935 524.633,559.102 529.5,558.5C 543.694,560.682 552.694,554.682 556.5,540.5C 558.242,538.027 560.075,538.027 562,540.5C 562.467,548.477 566.467,553.477 574,555.5C 575.675,553.832 577.342,552.165 579,550.5C 579.712,540.993 580.379,531.659 581,522.5C 583.528,517.669 587.028,516.336 591.5,518.5C 592.919,520.336 594.086,522.336 595,524.5C 595.087,533.752 595.92,542.919 597.5,552C 598.272,553.221 599.272,554.221 600.5,555C 602.966,555.665 605.133,556.165 607,556.5C 609.392,553.643 610.892,550.309 611.5,546.5C 611.468,539.608 611.134,532.774 610.5,526C 612.027,522.607 612.693,519.273 612.5,516C 610.561,515.092 609.561,513.592 609.5,511.5C 611.305,512.909 613.305,513.409 615.5,513C 615.167,512.667 614.833,512.333 614.5,512C 616.397,509.307 618.397,506.807 620.5,504.5C 620.014,508.947 618.68,513.114 616.5,517C 617.759,522.198 617.426,527.364 615.5,532.5C 618.049,537.829 619.549,543.495 620,549.5C 624.26,556.993 628.927,557.326 634,550.5C 634.985,548.634 635.485,546.634 635.5,544.5C 635.667,538.578 635.333,533.078 634.5,528C 637.167,526.667 637.167,525.333 634.5,524C 637.076,518.461 641.242,516.627 647,518.5C 648.439,520.275 649.439,522.275 650,524.5C 651.447,533.607 652.447,542.607 653,551.5C 655.12,555.113 658.287,556.78 662.5,556.5C 662.992,554.159 664.159,552.159 666,550.5C 666.789,546.909 666.622,543.409 665.5,540C 668.097,537.967 670.263,538.467 672,541.5C 673.513,545.681 675.846,549.348 679,552.5C 680.543,554.378 682.376,555.878 684.5,557C 693.43,559.788 702.43,560.121 711.5,558C 714.648,555.891 716.981,553.058 718.5,549.5C 718.023,548.522 717.357,547.689 716.5,547C 717.174,545.249 717.507,543.583 717.5,542C 714.553,541.925 713.553,540.758 714.5,538.5C 716.25,535.645 717.083,532.311 717,528.5C 717.741,529.641 718.575,529.641 719.5,528.5C 720.958,538.567 725.625,547.4 733.5,555C 735.286,555.785 736.786,556.951 738,558.5C 738.333,558.167 738.667,557.833 739,557.5C 745.337,559.456 751.837,559.956 758.5,559C 761.751,557.423 764.751,555.423 767.5,553C 767.189,550.412 766.689,547.579 766,544.5C 762.583,542.928 762.749,541.761 766.5,541C 765.833,540.667 765.167,540.333 764.5,540C 765.435,537.619 765.768,535.119 765.5,532.5C 764.5,532.5 763.5,532.5 762.5,532.5C 760.833,533.167 759.167,533.833 757.5,534.5C 752.833,534.833 748.167,535.167 743.5,535.5C 741.251,534.92 739.585,533.587 738.5,531.5C 738.351,528.393 738.851,525.393 740,522.5C 745.339,515.887 752.172,513.553 760.5,515.5C 769.202,511.877 774.202,515.044 775.5,525C 774.344,529.579 774.677,534.079 776.5,538.5C 775.998,539.716 775.665,540.883 775.5,542C 776.88,543.324 777.214,544.657 776.5,546C 780.411,556.169 787.744,559.836 798.5,557C 799.956,555.255 801.289,553.422 802.5,551.5C 801.066,547.953 800.066,544.62 799.5,541.5C 801.048,541.179 801.715,540.179 801.5,538.5C 802.423,541.632 804.09,544.465 806.5,547C 807.649,548.73 807.649,550.396 806.5,552C 807.167,552.333 807.833,552.667 808.5,553C 805.512,559.124 800.512,562.291 793.5,562.5C 789.144,561.882 785.144,560.382 781.5,558C 778.363,554.191 775.197,550.358 772,546.5C 769.761,557.402 762.927,562.736 751.5,562.5C 745.952,562.209 740.619,561.042 735.5,559C 731.311,555.31 726.978,551.81 722.5,548.5C 720.747,551.005 719.247,553.671 718,556.5C 715.518,557.998 713.018,559.498 710.5,561C 700.694,562.073 691.028,561.406 681.5,559C 678.086,554.937 674.586,551.104 671,547.5C 669.498,550.018 667.998,552.518 666.5,555C 666.833,555.333 667.167,555.667 667.5,556C 663.316,560.047 658.649,560.547 653.5,557.5C 649.449,553.109 648.115,548.109 649.5,542.5C 648.924,536.507 648.424,530.507 648,524.5C 647.49,521.743 645.823,520.409 643,520.5C 640.695,520.484 639.028,521.484 638,523.5C 637.682,527.195 637.182,530.862 636.5,534.5C 636.434,538.592 636.768,542.592 637.5,546.5C 636.509,549.839 635.509,553.172 634.5,556.5C 627.852,559.81 621.686,558.81 616,553.5C 612.631,556.979 608.965,559.313 605,560.5C 599.766,559.979 596.099,556.979 594,551.5C 593.667,543.167 593.333,534.833 593,526.5C 591.194,520.007 587.861,519.007 583,523.5C 582.764,525.764 582.264,527.931 581.5,530C 581.368,535.452 581.701,540.785 582.5,546C 581.726,548.405 581.226,550.905 581,553.5C 579.279,555.711 577.279,557.711 575,559.5C 571.853,558.722 568.687,557.889 565.5,557C 563.524,553.547 561.691,550.047 560,546.5C 555.97,550.44 551.803,554.274 547.5,558C 533.293,564.608 520.126,562.774 508,552.5C 504.197,556.167 499.697,559.001 494.5,561C 482.136,564.014 470.136,562.681 458.5,557C 454.396,554.082 450.396,550.249 446.5,545.5C 444.512,546.289 444.179,547.455 445.5,549C 444.672,549.915 443.672,550.581 442.5,551C 442.957,551.414 443.291,551.914 443.5,552.5C 442.248,554.001 441.248,555.668 440.5,557.5C 438.696,558.716 437.029,559.716 435.5,560.5C 431.675,560.301 427.509,559.968 423,559.5C 421.739,559.759 420.739,560.426 420,561.5C 413.9,561.35 407.9,561.35 402,561.5C 398.079,557.802 393.579,556.968 388.5,559C 388.833,559.333 389.167,559.667 389.5,560C 380.031,562.989 370.697,562.323 361.5,558C 359.112,553.498 355.945,549.664 352,546.5C 349.619,549.487 347.452,552.653 345.5,556C 345.833,556.333 346.167,556.667 346.5,557C 332.645,564.054 318.645,564.221 304.5,557.5C 303.5,558.833 302.5,558.833 301.5,557.5C 295.332,562.184 288.665,562.351 281.5,558C 279.638,555.052 277.971,552.052 276.5,549C 276.389,543.722 276.389,538.388 276.5,533C 275.316,530.284 274.316,527.451 273.5,524.5C 271.953,525.768 270.953,527.435 270.5,529.5C 271.253,532.214 271.253,534.714 270.5,537C 271.167,538.667 271.833,540.333 272.5,542C 271.833,542.333 271.167,542.667 270.5,543C 272.812,557.542 266.812,563.209 252.5,560C 249.667,558.5 247.5,556.333 246,553.5C 245.333,554.833 244.667,554.833 244,553.5C 237.964,561.515 230.464,563.348 221.5,559C 218.959,556.269 217.125,553.102 216,549.5C 214.283,530.099 214.616,510.766 217,491.5C 219.355,487.706 220.855,483.706 221.5,479.5 Z"/></g>
<g><path style="opacity:1" fill="#ec783c" d="M 681.5,522.5 C 684.181,533.517 691.181,538.017 702.5,536C 705.744,535.03 708.91,533.863 712,532.5C 714.817,533.789 715.65,535.789 714.5,538.5C 706.568,542.033 698.235,543.366 689.5,542.5C 681.616,538.945 676.616,532.945 674.5,524.5C 676.309,526.099 677.642,528.099 678.5,530.5C 680.986,528.422 681.986,525.755 681.5,522.5 Z"/></g>
<g><path style="opacity:1" fill="#dc592f" d="M 372.5,503.5 C 372.175,511.352 372.508,519.018 373.5,526.5C 375.094,531.049 378.094,532.382 382.5,530.5C 382.833,530.5 383.167,530.5 383.5,530.5C 385.113,532.461 386.113,534.794 386.5,537.5C 386.463,540.702 384.797,542.368 381.5,542.5C 376.797,542.563 372.13,542.229 367.5,541.5C 365.629,541.141 364.129,540.141 363,538.5C 361.132,535.395 359.965,532.062 359.5,528.5C 359.5,527.833 359.5,527.167 359.5,526.5C 360.151,527.091 360.818,527.757 361.5,528.5C 364.513,527.051 367.346,525.385 370,523.5C 370.333,523.833 370.667,524.167 371,524.5C 371.171,517.321 371.671,510.321 372.5,503.5 Z"/></g>
<g><path style="opacity:1" fill="#ec702e" d="M 728.5,530.5 C 727.226,528.007 726.56,525.341 726.5,522.5C 726.336,519.813 726.503,517.146 727,514.5C 727.691,516.891 728.691,516.891 730,514.5C 731.826,519.764 732.326,525.098 731.5,530.5C 730.5,530.5 729.5,530.5 728.5,530.5 Z"/></g>
<g><path style="opacity:1" fill="#f4e6de" d="M 384.5,502.5 C 384.833,502.5 385.167,502.5 385.5,502.5C 384.51,506.786 383.343,511.12 382,515.5C 379.67,513.968 377.67,514.302 376,516.5C 375.333,520.5 375.333,524.5 376,528.5C 377.789,530.229 379.956,530.896 382.5,530.5C 378.094,532.382 375.094,531.049 373.5,526.5C 373.5,518.833 373.5,511.167 373.5,503.5C 377.371,503.815 381.038,503.482 384.5,502.5 Z"/></g>
<g><path style="opacity:1" fill="#ee7430" d="M 716.5,516.5 C 705.215,518.478 693.548,519.145 681.5,518.5C 681.5,519.833 681.5,521.167 681.5,522.5C 681.986,525.755 680.986,528.422 678.5,530.5C 677.642,528.099 676.309,526.099 674.5,524.5C 674.5,523.833 674.5,523.167 674.5,522.5C 674.337,520.143 674.503,517.81 675,515.5C 677,512.833 679,512.833 681,515.5C 690.422,514.349 699.922,514.182 709.5,515C 709.998,516.158 710.831,516.991 712,517.5C 713.44,516.852 714.94,516.519 716.5,516.5 Z"/></g>
<g><path style="opacity:1" fill="#ebae94" d="M 384.5,502.5 C 381.038,503.482 377.371,503.815 373.5,503.5C 373.5,511.167 373.5,518.833 373.5,526.5C 372.508,519.018 372.175,511.352 372.5,503.5C 376.298,502.517 380.298,502.183 384.5,502.5 Z"/></g>
<g><path style="opacity:1" fill="#edb69d" d="M 417.5,502.5 C 412.797,502.437 408.13,502.771 403.5,503.5C 406.017,502.027 408.85,501.36 412,501.5C 414.033,501.506 415.866,501.839 417.5,502.5 Z"/></g>
<g><path style="opacity:1" fill="#ea7035" d="M 515.5,509.5 C 515.334,514.511 515.501,519.511 516,524.5C 516.608,526.066 517.442,527.4 518.5,528.5C 518.427,530.027 519.094,531.027 520.5,531.5C 521.771,533.934 523.771,535.434 526.5,536C 531.026,536.849 535.36,536.349 539.5,534.5C 543.362,531.45 545.695,527.45 546.5,522.5C 547.326,517.684 547.826,512.684 548,507.5C 548.941,509.061 550.108,510.395 551.5,511.5C 552.182,510.757 552.849,510.091 553.5,509.5C 554.338,509.842 554.672,510.508 554.5,511.5C 555.977,536.193 544.644,546.026 520.5,541C 514.151,537.108 510.151,531.608 508.5,524.5C 508.5,519.5 508.5,514.5 508.5,509.5C 508.5,508.5 508.5,507.5 508.5,506.5C 508.833,506.5 509.167,506.5 509.5,506.5C 510.859,505.993 511.859,504.993 512.5,503.5C 513.736,502.754 515.07,502.421 516.5,502.5C 516.326,504.861 515.993,507.194 515.5,509.5 Z"/></g>
<g><path style="opacity:1" fill="#fcfaf8" d="M 539.5,534.5 C 535.36,536.349 531.026,536.849 526.5,536C 523.771,535.434 521.771,533.934 520.5,531.5C 519.572,528.392 520.072,525.392 522,522.5C 525.135,516.011 529.968,514.177 536.5,517C 540.71,521.082 541.377,525.582 538.5,530.5C 539.246,531.736 539.579,533.07 539.5,534.5 Z"/></g>
<g><path style="opacity:1" fill="#f4d3c3" d="M 517.5,507.5 C 517.326,514.535 517.659,521.535 518.5,528.5C 517.442,527.4 516.608,526.066 516,524.5C 515.501,519.511 515.334,514.511 515.5,509.5C 516.167,508.833 516.833,508.167 517.5,507.5 Z"/></g>
<g><path style="opacity:1" fill="#ed7e44" d="M 623.5,493.5 C 623.5,509.167 623.5,524.833 623.5,540.5C 625.167,540.5 626.833,540.5 628.5,540.5C 628.173,530.319 628.506,520.319 629.5,510.5C 629.5,520.833 629.5,531.167 629.5,541.5C 627.167,541.5 624.833,541.5 622.5,541.5C 622.17,525.325 622.504,509.325 623.5,493.5 Z"/></g>
<g><path style="opacity:1" fill="#f0b18f" d="M 800.5,537.5 C 801.167,537.5 801.5,537.833 801.5,538.5C 801.715,540.179 801.048,541.179 799.5,541.5C 800.234,540.292 800.567,538.959 800.5,537.5 Z"/></g>
<g><path style="opacity:1" fill="#f6ece7" d="M 250.5,491.5 C 250.17,508.342 250.503,525.008 251.5,541.5C 255.5,541.5 259.5,541.5 263.5,541.5C 263.833,541.5 264.167,541.5 264.5,541.5C 265.329,534.011 265.829,526.344 266,518.5C 269.42,514.082 273.42,512.415 278,513.5C 278.915,514.328 279.581,515.328 280,516.5C 280.004,525.073 280.838,533.407 282.5,541.5C 283.609,542.29 284.942,542.79 286.5,543C 282.963,544.826 282.629,547.16 285.5,550C 285.167,550.333 284.833,550.667 284.5,551C 292.991,558.262 297.991,556.262 299.5,545C 298.933,531.04 297.933,517.207 296.5,503.5C 296.5,502.833 296.5,502.167 296.5,501.5C 297.922,501.75 298.922,502.583 299.5,504C 301.473,504.495 303.473,504.662 305.5,504.5C 305.229,502.62 305.896,501.287 307.5,500.5C 307.5,503.833 307.5,507.167 307.5,510.5C 307.247,512.827 307.914,514.827 309.5,516.5C 308.833,516.833 308.167,517.167 307.5,517.5C 308.851,519.019 310.351,520.352 312,521.5C 312.914,520.346 313.747,520.513 314.5,522C 314.043,522.414 313.709,522.914 313.5,523.5C 315.465,524.292 317.465,524.959 319.5,525.5C 320.424,527.39 321.757,528.89 323.5,530C 320.493,530.301 317.493,530.135 314.5,529.5C 313.262,528.588 311.928,528.421 310.5,529C 308.819,531.344 307.152,533.677 305.5,536C 307.508,538.327 309.842,540.16 312.5,541.5C 313.007,542.859 314.007,543.859 315.5,544.5C 311.9,548.098 312.233,550.598 316.5,552C 324.242,554.111 331.909,553.944 339.5,551.5C 341.96,547.414 344.293,543.247 346.5,539C 344.9,537.029 344.734,535.196 346,533.5C 346.81,529.642 346.643,525.976 345.5,522.5C 344.974,520.77 343.974,519.436 342.5,518.5C 341.5,517.167 340.5,515.833 339.5,514.5C 338.549,512.38 337.049,510.714 335,509.5C 334.383,508.551 334.549,507.718 335.5,507C 334.552,506.517 333.552,506.351 332.5,506.5C 332.5,505.5 332.5,504.5 332.5,503.5C 333.5,503.5 334.5,503.5 335.5,503.5C 336.695,503.678 337.862,504.011 339,504.5C 340.658,502.532 342.325,500.532 344,498.5C 344.706,496.045 343.873,494.378 341.5,493.5C 344.535,493.521 346.868,494.854 348.5,497.5C 349.17,495.709 349.837,494.042 350.5,492.5C 350.5,496.167 350.5,499.833 350.5,503.5C 353.167,503.5 355.833,503.5 358.5,503.5C 358.5,511.833 358.5,520.167 358.5,528.5C 359.596,533.924 360.262,539.258 360.5,544.5C 360.833,544.833 361.167,545.167 361.5,545.5C 362.251,544.624 362.751,543.624 363,542.5C 365.806,551.653 371.639,554.487 380.5,551C 380.167,550.667 379.833,550.333 379.5,550C 381.02,547.234 383.353,545.567 386.5,545C 387.21,542.582 387.21,540.082 386.5,537.5C 386.113,534.794 385.113,532.461 383.5,530.5C 383.56,529.957 383.893,529.624 384.5,529.5C 387.448,529.916 388.115,531.249 386.5,533.5C 387.786,535.29 389.286,536.957 391,538.5C 391.497,536.19 391.663,533.857 391.5,531.5C 392.674,532.514 393.34,533.847 393.5,535.5C 393.328,537.492 393.995,539.158 395.5,540.5C 394.711,545.272 396.377,549.106 400.5,552C 410.561,553.561 420.561,553.061 430.5,550.5C 431.442,550.608 432.275,550.941 433,551.5C 434.61,549.403 435.777,547.07 436.5,544.5C 437.823,533.674 437.823,523.007 436.5,512.5C 436.5,510.167 436.5,507.833 436.5,505.5C 436.833,505.5 437.167,505.5 437.5,505.5C 439.007,512.551 440.007,519.717 440.5,527C 440.282,532.243 439.616,537.409 438.5,542.5C 438.987,543.446 439.32,544.446 439.5,545.5C 437.917,555.131 432.751,558.131 424,554.5C 412.245,559.527 401.245,558.194 391,550.5C 384.137,557.562 375.97,559.395 366.5,556C 361.717,550.322 358.05,543.988 355.5,537C 356.167,535.333 356.833,533.667 357.5,532C 356.463,527.463 353.796,524.296 349.5,522.5C 347.399,527.272 347.399,531.939 349.5,536.5C 348.093,543.417 345.093,549.584 340.5,555C 338.043,556.562 335.376,557.562 332.5,558C 325.915,558.067 319.415,558.234 313,558.5C 310.067,556.834 307.067,555.168 304,553.5C 299.512,555.719 294.846,557.385 290,558.5C 285.692,556.859 282.692,553.859 281,549.5C 279.95,540.147 278.616,530.814 277,521.5C 275.863,520.636 274.53,519.636 273,518.5C 269.606,520.669 268.106,523.836 268.5,528C 269.346,534.912 269.68,541.745 269.5,548.5C 268.729,551.877 267.062,554.711 264.5,557C 261.233,558.33 258.066,558.83 255,558.5C 251.317,554.632 248.817,550.132 247.5,545C 247.266,528.516 247.6,512.016 248.5,495.5C 248.157,493.517 248.824,492.183 250.5,491.5 Z"/></g>
<g><path style="opacity:1" fill="#e16031" d="M 408.5,521.5 C 404.293,525.328 404.627,528.661 409.5,531.5C 412.305,532.319 415.305,532.819 418.5,533C 419.253,534.487 420.086,534.654 421,533.5C 420.981,535.107 420.815,536.774 420.5,538.5C 419.5,539.167 418.5,539.833 417.5,540.5C 412.659,542.152 407.659,542.818 402.5,542.5C 398.612,541.275 395.612,538.941 393.5,535.5C 393.34,533.847 392.674,532.514 391.5,531.5C 390.248,525.334 391.915,520.334 396.5,516.5C 399.809,516.468 403.143,516.468 406.5,516.5C 407.562,518.022 408.229,519.688 408.5,521.5 Z"/></g>
<g><path style="opacity:1" fill="#d44a30" d="M 342.5,518.5 C 343.974,519.436 344.974,520.77 345.5,522.5C 345.648,536.186 338.815,543.186 325,543.5C 320.77,543.143 316.604,542.477 312.5,541.5C 309.842,540.16 307.508,538.327 305.5,536C 307.152,533.677 308.819,531.344 310.5,529C 311.928,528.421 313.262,528.588 314.5,529.5C 315.6,530.558 316.934,531.392 318.5,532C 323.229,532.996 327.729,532.496 332,530.5C 332.49,529.207 332.657,527.873 332.5,526.5C 331.829,525.153 331.829,523.986 332.5,523C 334.584,522.222 336.417,521.055 338,519.5C 338.333,520.167 338.667,520.833 339,521.5C 339.759,519.937 340.926,518.937 342.5,518.5 Z"/></g>
<g><path style="opacity:1" fill="#cc3c26" d="M 295.5,541.5 C 291.5,541.5 287.5,541.5 283.5,541.5C 283.334,533.16 283.5,524.827 284,516.5C 284.065,518.883 284.898,519.55 286.5,518.5C 288.789,519.077 289.955,520.077 290,521.5C 291.873,520.132 293.54,518.466 295,516.5C 295.5,524.827 295.666,533.16 295.5,541.5 Z"/></g>
<g><path style="opacity:1" fill="#f3e0d7" d="M 307.5,510.5 C 308.847,513.366 310.847,515.866 313.5,518C 319.904,520.743 326.238,523.576 332.5,526.5C 332.657,527.873 332.49,529.207 332,530.5C 327.729,532.496 323.229,532.996 318.5,532C 316.934,531.392 315.6,530.558 314.5,529.5C 317.493,530.135 320.493,530.301 323.5,530C 321.757,528.89 320.424,527.39 319.5,525.5C 317.465,524.959 315.465,524.292 313.5,523.5C 313.709,522.914 314.043,522.414 314.5,522C 313.747,520.513 312.914,520.346 312,521.5C 310.351,520.352 308.851,519.019 307.5,517.5C 308.167,517.167 308.833,516.833 309.5,516.5C 307.914,514.827 307.247,512.827 307.5,510.5 Z"/></g>
<g><path style="opacity:1" fill="#f7e7e0" d="M 421.5,525.5 C 419.238,530.632 415.238,532.632 409.5,531.5C 404.627,528.661 404.293,525.328 408.5,521.5C 409.167,521.167 409.833,520.833 410.5,520.5C 414.135,519.886 417.802,519.552 421.5,519.5C 421.5,521.5 421.5,523.5 421.5,525.5 Z"/></g>
<g><path style="opacity:1" fill="#f1baa2" d="M 421.5,525.5 C 421.5,523.5 421.5,521.5 421.5,519.5C 417.802,519.552 414.135,519.886 410.5,520.5C 410.918,519.778 411.584,519.278 412.5,519C 415.817,518.502 419.15,518.335 422.5,518.5C 422.802,521.059 422.468,523.393 421.5,525.5 Z"/></g>
<g><path style="opacity:1" fill="#da532f" d="M 320.5,506.5 C 321.749,508.136 323.416,509.303 325.5,510C 330.281,511.228 334.947,512.728 339.5,514.5C 340.5,515.833 341.5,517.167 342.5,518.5C 340.926,518.937 339.759,519.937 339,521.5C 338.667,520.833 338.333,520.167 338,519.5C 336.417,521.055 334.584,522.222 332.5,523C 331.829,523.986 331.829,525.153 332.5,526.5C 326.238,523.576 319.904,520.743 313.5,518C 310.847,515.866 308.847,513.366 307.5,510.5C 307.5,507.167 307.5,503.833 307.5,500.5C 309.215,498.118 311.215,496.118 313.5,494.5C 315.782,493.61 318.115,493.444 320.5,494C 318.224,496.142 316.89,498.809 316.5,502C 317.448,502.483 318.448,502.649 319.5,502.5C 319.232,504.099 319.566,505.432 320.5,506.5 Z"/></g>
<g><path style="opacity:1" fill="#ca3422" d="M 251.5,493.5 C 252.5,493.5 253.5,493.5 254.5,493.5C 254.04,502.783 254.54,512.116 256,521.5C 256.333,522.167 256.667,522.833 257,523.5C 257.893,522.289 258.726,522.289 259.5,523.5C 262.434,528.399 263.768,534.399 263.5,541.5C 259.5,541.5 255.5,541.5 251.5,541.5C 251.5,525.5 251.5,509.5 251.5,493.5 Z"/></g>
<g><path style="opacity:1" fill="#f3bb9f" d="M 421.5,505.5 C 422.451,506.919 422.784,508.585 422.5,510.5C 418.833,510.5 415.167,510.5 411.5,510.5C 414.625,509.521 417.958,509.187 421.5,509.5C 421.5,508.167 421.5,506.833 421.5,505.5 Z"/></g>
<g><path style="opacity:1" fill="#cd442c" d="M 251.5,493.5 C 254.731,492.218 258.064,492.218 261.5,493.5C 261.5,493.833 261.5,494.167 261.5,494.5C 261.5,495.833 261.5,497.167 261.5,498.5C 262.656,501.152 264.656,502.986 267.5,504C 266.027,504.71 265.36,505.876 265.5,507.5C 264.523,518.752 264.189,530.086 264.5,541.5C 264.167,541.5 263.833,541.5 263.5,541.5C 263.768,534.399 262.434,528.399 259.5,523.5C 258.726,522.289 257.893,522.289 257,523.5C 256.667,522.833 256.333,522.167 256,521.5C 254.54,512.116 254.04,502.783 254.5,493.5C 253.5,493.5 252.5,493.5 251.5,493.5 Z"/></g>
<g><path style="opacity:1" fill="#f3ddd4" d="M 282.5,541.5 C 280.838,533.407 280.004,525.073 280,516.5C 279.581,515.328 278.915,514.328 278,513.5C 273.42,512.415 269.42,514.082 266,518.5C 265.829,526.344 265.329,534.011 264.5,541.5C 264.189,530.086 264.523,518.752 265.5,507.5C 267.861,504.821 270.861,503.488 274.5,503.5C 277.971,503.151 280.471,504.484 282,507.5C 282.5,518.828 282.667,530.162 282.5,541.5 Z"/></g>
<g><path style="opacity:1" fill="#f4e1d7" d="M 335.5,503.5 C 334.5,503.5 333.5,503.5 332.5,503.5C 332.5,504.5 332.5,505.5 332.5,506.5C 333.552,506.351 334.552,506.517 335.5,507C 334.549,507.718 334.383,508.551 335,509.5C 337.049,510.714 338.549,512.38 339.5,514.5C 334.947,512.728 330.281,511.228 325.5,510C 323.416,509.303 321.749,508.136 320.5,506.5C 320.297,504.61 320.963,503.11 322.5,502C 326.167,501.333 329.833,501.333 333.5,502C 334.416,502.278 335.082,502.778 335.5,503.5 Z"/></g>
<g><path style="opacity:1" fill="#e88f73" d="M 261.5,494.5 C 262.404,495.209 262.737,496.209 262.5,497.5C 263.5,497.5 264.5,497.5 265.5,497.5C 264.597,499.62 263.263,499.954 261.5,498.5C 261.5,497.167 261.5,495.833 261.5,494.5 Z"/></g>
<g><path style="opacity:1" fill="#f2956c" d="M 468.5,541.5 C 473.797,542.275 479.13,542.608 484.5,542.5C 482.527,543.163 480.361,543.496 478,543.5C 474.523,543.672 471.356,543.006 468.5,541.5 Z"/></g>
<g><path style="opacity:1" fill="#f4e4dd" d="M 554.5,511.5 C 555.43,518.064 556.097,524.564 556.5,531C 555.552,531.483 554.552,531.649 553.5,531.5C 553.714,533.144 553.38,534.644 552.5,536C 553.308,536.308 553.975,536.808 554.5,537.5C 553.066,539.22 552.233,541.22 552,543.5C 550.074,545.545 547.908,547.378 545.5,549C 541.947,551.483 538.281,551.816 534.5,550C 536.348,547.821 538.515,545.987 541,544.5C 541.688,543.668 541.521,543.002 540.5,542.5C 535.23,543.451 529.897,543.785 524.5,543.5C 524.351,544.552 524.517,545.552 525,546.5C 526.932,548.038 529.099,549.205 531.5,550C 526.707,555.279 521.54,555.779 516,551.5C 512.91,547.821 510.744,543.654 509.5,539C 510.109,536.942 511.109,536.109 512.5,536.5C 510.803,535.636 509.637,534.303 509,532.5C 508.503,529.854 508.336,527.187 508.5,524.5C 510.151,531.608 514.151,537.108 520.5,541C 544.644,546.026 555.977,536.193 554.5,511.5 Z"/></g>
<g><path style="opacity:1" fill="#f2e1da" d="M 436.5,512.5 C 437.823,523.007 437.823,533.674 436.5,544.5C 435.777,547.07 434.61,549.403 433,551.5C 432.275,550.941 431.442,550.608 430.5,550.5C 420.561,553.061 410.561,553.561 400.5,552C 396.377,549.106 394.711,545.272 395.5,540.5C 393.995,539.158 393.328,537.492 393.5,535.5C 395.612,538.941 398.612,541.275 402.5,542.5C 406.311,543.645 410.311,543.812 414.5,543C 415.942,542.623 416.942,541.79 417.5,540.5C 418.5,539.833 419.5,539.167 420.5,538.5C 421.265,537.34 422.265,536.34 423.5,535.5C 424.466,537.396 424.799,539.396 424.5,541.5C 428.5,541.5 432.5,541.5 436.5,541.5C 436.5,531.833 436.5,522.167 436.5,512.5 Z"/></g>
<g><path style="opacity:1" fill="#efb8a6" d="M 417.5,540.5 C 416.942,541.79 415.942,542.623 414.5,543C 410.311,543.812 406.311,543.645 402.5,542.5C 407.659,542.818 412.659,542.152 417.5,540.5 Z"/></g>
<g><path style="opacity:1" fill="#f0dcd4" d="M 345.5,522.5 C 346.643,525.976 346.81,529.642 346,533.5C 344.734,535.196 344.9,537.029 346.5,539C 344.293,543.247 341.96,547.414 339.5,551.5C 331.909,553.944 324.242,554.111 316.5,552C 312.233,550.598 311.9,548.098 315.5,544.5C 314.007,543.859 313.007,542.859 312.5,541.5C 316.604,542.477 320.77,543.143 325,543.5C 338.815,543.186 345.648,536.186 345.5,522.5 Z"/></g>
<g><path style="opacity:1" fill="#f1dcd4" d="M 358.5,528.5 C 358.833,528.5 359.167,528.5 359.5,528.5C 359.965,532.062 361.132,535.395 363,538.5C 364.129,540.141 365.629,541.141 367.5,541.5C 370.017,542.973 372.85,543.64 376,543.5C 378.033,543.494 379.866,543.161 381.5,542.5C 384.797,542.368 386.463,540.702 386.5,537.5C 387.21,540.082 387.21,542.582 386.5,545C 383.353,545.567 381.02,547.234 379.5,550C 379.833,550.333 380.167,550.667 380.5,551C 371.639,554.487 365.806,551.653 363,542.5C 362.751,543.624 362.251,544.624 361.5,545.5C 361.167,545.167 360.833,544.833 360.5,544.5C 360.262,539.258 359.596,533.924 358.5,528.5 Z"/></g>
<g><path style="opacity:1" fill="#e79078" d="M 367.5,541.5 C 372.13,542.229 376.797,542.563 381.5,542.5C 379.866,543.161 378.033,543.494 376,543.5C 372.85,543.64 370.017,542.973 367.5,541.5 Z"/></g>
<g><path style="opacity:1" fill="#f1dcd6" d="M 222.5,473.5 C 222.169,496.339 222.503,519.006 223.5,541.5C 227.833,541.5 232.167,541.5 236.5,541.5C 236.5,532.833 236.5,524.167 236.5,515.5C 236.5,502.167 236.5,488.833 236.5,475.5C 237.461,477.265 237.795,479.265 237.5,481.5C 238.884,484.308 239.551,487.308 239.5,490.5C 238.885,509.046 238.885,527.546 239.5,546C 238.91,548.196 238.243,550.362 237.5,552.5C 227.347,559.047 221.347,556.213 219.5,544C 220.234,522.507 220.901,501.007 221.5,479.5C 221.205,477.265 221.539,475.265 222.5,473.5 Z"/></g>
<g><path style="opacity:1" fill="#be2a23" d="M 235.5,515.5 C 235.833,515.5 236.167,515.5 236.5,515.5C 236.5,524.167 236.5,532.833 236.5,541.5C 232.167,541.5 227.833,541.5 223.5,541.5C 223.5,535.5 223.5,529.5 223.5,523.5C 224.117,523.611 224.617,523.944 225,524.5C 226.444,522.845 228.278,522.178 230.5,522.5C 230.351,521.448 230.517,520.448 231,519.5C 234.466,522.625 235.966,521.292 235.5,515.5 Z"/></g>
<g><path style="opacity:1" fill="#f2ddd7" d="M 296.5,503.5 C 297.933,517.207 298.933,531.04 299.5,545C 297.991,556.262 292.991,558.262 284.5,551C 284.833,550.667 285.167,550.333 285.5,550C 282.629,547.16 282.963,544.826 286.5,543C 284.942,542.79 283.609,542.29 282.5,541.5C 282.833,541.5 283.167,541.5 283.5,541.5C 287.5,541.5 291.5,541.5 295.5,541.5C 296.495,529.011 296.829,516.344 296.5,503.5 Z"/></g>
<g><path style="opacity:1" fill="#f4e5df" d="M 673.5,522.5 C 673.833,522.5 674.167,522.5 674.5,522.5C 674.5,523.167 674.5,523.833 674.5,524.5C 676.616,532.945 681.616,538.945 689.5,542.5C 687.669,541.948 686.003,541.948 684.5,542.5C 685.472,544.636 687.139,545.803 689.5,546C 695.349,546.602 701.182,546.435 707,545.5C 709.051,545.423 710.884,545.923 712.5,547C 712.377,550.686 710.71,553.353 707.5,555C 690.302,559.426 679.135,553.259 674,536.5C 672.971,531.709 672.804,527.043 673.5,522.5 Z"/></g>
<g><path style="opacity:1" fill="#f6e9e3" d="M 727.5,505.5 C 725.521,511.216 725.188,516.882 726.5,522.5C 726.56,525.341 727.226,528.007 728.5,530.5C 730.121,533.567 732.121,536.401 734.5,539C 742.519,542.918 750.852,543.585 759.5,541C 764.792,539.623 765.792,536.789 762.5,532.5C 763.5,532.5 764.5,532.5 765.5,532.5C 765.768,535.119 765.435,537.619 764.5,540C 765.167,540.333 765.833,540.667 766.5,541C 762.749,541.761 762.583,542.928 766,544.5C 766.689,547.579 767.189,550.412 767.5,553C 764.751,555.423 761.751,557.423 758.5,559C 751.837,559.956 745.337,559.456 739,557.5C 738.667,557.833 738.333,558.167 738,558.5C 736.786,556.951 735.286,555.785 733.5,555C 725.625,547.4 720.958,538.567 719.5,528.5C 718.575,529.641 717.741,529.641 717,528.5C 717.083,532.311 716.25,535.645 714.5,538.5C 715.65,535.789 714.817,533.789 712,532.5C 708.91,533.863 705.744,535.03 702.5,536C 691.181,538.017 684.181,533.517 681.5,522.5C 681.5,521.167 681.5,519.833 681.5,518.5C 693.548,519.145 705.215,518.478 716.5,516.5C 716.5,514.167 716.5,511.833 716.5,509.5C 717.483,513.298 717.817,517.298 717.5,521.5C 718.822,521.33 719.989,521.663 721,522.5C 722.916,519.102 723.916,515.435 724,511.5C 724.876,509.242 726.043,507.242 727.5,505.5 Z"/></g>
<g><path style="opacity:1" fill="#f5d9cd" d="M 757.5,534.5 C 754.983,535.973 752.15,536.64 749,536.5C 746.967,536.494 745.134,536.161 743.5,535.5C 748.167,535.167 752.833,534.833 757.5,534.5 Z"/></g>
<g><path style="opacity:1" fill="#f8f0ec" d="M 621.5,493.5 C 621.5,498.5 621.5,503.5 621.5,508.5C 620.341,519.659 620.174,530.992 621,542.5C 622.08,544.996 623.414,547.33 625,549.5C 626.32,549.201 627.82,549.034 629.5,549C 630.211,547.745 631.044,546.579 632,545.5C 631.779,537.176 631.779,528.843 632,520.5C 634.303,515.893 637.303,512.559 641,510.5C 645.48,510.567 648.813,512.901 651,517.5C 652.825,525.538 653.992,533.538 654.5,541.5C 657.167,541.5 659.833,541.5 662.5,541.5C 662.778,528.13 662.445,514.797 661.5,501.5C 663.555,503.234 664.888,505.567 665.5,508.5C 666.991,509.244 668.491,509.91 670,510.5C 671.47,509.733 672.97,509.067 674.5,508.5C 673.617,513.103 673.283,517.77 673.5,522.5C 672.804,527.043 672.971,531.709 674,536.5C 679.135,553.259 690.302,559.426 707.5,555C 710.71,553.353 712.377,550.686 712.5,547C 710.884,545.923 709.051,545.423 707,545.5C 701.182,546.435 695.349,546.602 689.5,546C 687.139,545.803 685.472,544.636 684.5,542.5C 686.003,541.948 687.669,541.948 689.5,542.5C 698.235,543.366 706.568,542.033 714.5,538.5C 713.553,540.758 714.553,541.925 717.5,542C 717.507,543.583 717.174,545.249 716.5,547C 717.357,547.689 718.023,548.522 718.5,549.5C 716.981,553.058 714.648,555.891 711.5,558C 702.43,560.121 693.43,559.788 684.5,557C 682.376,555.878 680.543,554.378 679,552.5C 675.846,549.348 673.513,545.681 672,541.5C 670.263,538.467 668.097,537.967 665.5,540C 666.622,543.409 666.789,546.909 666,550.5C 664.159,552.159 662.992,554.159 662.5,556.5C 658.287,556.78 655.12,555.113 653,551.5C 652.447,542.607 651.447,533.607 650,524.5C 649.439,522.275 648.439,520.275 647,518.5C 641.242,516.627 637.076,518.461 634.5,524C 637.167,525.333 637.167,526.667 634.5,528C 635.333,533.078 635.667,538.578 635.5,544.5C 635.485,546.634 634.985,548.634 634,550.5C 628.927,557.326 624.26,556.993 620,549.5C 619.549,543.495 618.049,537.829 615.5,532.5C 617.426,527.364 617.759,522.198 616.5,517C 618.68,513.114 620.014,508.947 620.5,504.5C 620.185,500.629 620.518,496.962 621.5,493.5 Z"/></g>
</svg>
